<svg width="12" height="18" viewBox="0 0 12 18" fill="none" xmlns="http://www.w3.org/2000/svg">
<path d="M11.2499 9.75067C10.8352 9.75067 10.4999 10.0867 10.4999 10.5006V13.5007C10.4999 13.9139 10.1639 14.2506 9.74985 14.2506H7.49988V3.00075C7.49988 2.36025 7.09188 1.78801 6.47843 1.57501L6.25637 1.50072H9.74985C10.1639 1.50072 10.4999 1.83744 10.4999 2.2508V4.50078C10.4999 4.91468 10.8352 5.25072 11.2499 5.25072C11.6646 5.25072 11.9998 4.91468 11.9998 4.50078V2.2508C11.9998 1.01032 10.9903 0.000823975 9.74985 0.000823975H1.68748C1.65892 0.000823975 1.63502 0.0135955 1.60728 0.0173033C1.57117 0.0142821 1.5367 0.000823975 1.50003 0.000823975C0.672768 0.000823975 0 0.673455 0 1.50072V15.0006C0 15.6411 0.408 16.2133 1.02144 16.4263L5.53499 17.9309C5.68797 17.9781 5.84013 18.0006 5.99998 18.0006C6.82724 18.0006 7.49988 17.3279 7.49988 16.5006V15.7507H9.74985C10.9903 15.7507 11.9998 14.7412 11.9998 13.5007V10.5006C11.9998 10.0867 11.6646 9.75067 11.2499 9.75067Z" fill="white"/>
</svg>
